<?xml version="1.0" encoding="utf-8"?>
<!-- Generator: $$$/GeneralStr/196=Adobe Illustrator 27.6.0, SVG Export Plug-In . SVG Version: 6.00 Build 0)  -->
<svg version="1.1" id="图层_1" xmlns="http://www.w3.org/2000/svg" xmlns:xlink="http://www.w3.org/1999/xlink" x="0px" y="0px"
	 viewBox="0 0 128 128" style="enable-background:new 0 0 128 128;" xml:space="preserve">
<style type="text/css">
	.st0{fill:#519C58;}
	.st1{fill:#FFFFFF;}
</style>
<rect class="st0" width="128" height="128"/>
<g>
	<g>
		<path class="st1" d="M64,1C29.2,1,1,29.2,1,64s28.2,63,63,63c34.8,0,63-28.2,63-63S98.8,1,64,1z M98.3,78.7
			c-1.1,4.9-2.9,9.5-5.4,13.7c-6.3,10.9-16.6,19.2-28.9,23c-21-5.8-36.5-24.9-36.8-47.7c0-3.4,0.2-6.7,0.9-10c0.5-2.5,1.2-5.1,2-7.4
			c0.5-1.4,1-2.7,1.6-4c3,0.9,6.2,1.6,9.4,1.8C42.1,48,43,48,44,48c12.2-0.1,23-5.9,30.1-14.7c7.2,1,13.8,4.1,18.8,8.9
			c1.5,2.5,2.7,5.2,3.7,8c1.9,5.1,3,10.7,3.1,16.5C99.7,70.8,99.2,74.8,98.3,78.7z M105.1,52.5c0,0.1,0,0.2,0,0.3
			c-0.1,0.6-0.7,1.2-1.3,1.2c-0.5,0-1-0.3-1.3-0.7c-0.1-0.2-0.1-0.4-0.2-0.6c-1.4-4.6-3.8-8.9-6.9-12.4c-1-1.2-2.1-2.2-3.3-3.3
			c-5.2-4.6-11.8-7.6-19.1-8.3c-6.8,9-17.4,15.1-29.6,15.6c-0.9,0.1-1.9,0-2.8,0c-3.2-0.1-6.5-0.6-9.5-1.5c-0.4-0.1-0.7-0.2-1.1-0.3
			c-0.3-0.1-0.6-0.2-1-0.3c-3.5-1.2-6.8-2.9-9.8-5.1c-0.1-0.1-0.3-0.2-0.4-0.3c-0.3-0.3-0.4-0.6-0.4-0.9c-0.1-0.8,0.6-1.4,1.4-1.5
			c0.1,0,0.3,0,0.4,0.1c0.1,0,0.1,0.1,0.2,0.1c3.4,1.1,6.9,1.8,10.6,2.1c1.1-2.5,2.5-5,4.1-7.2c0,0,0,0,0-0.1c4-5.5,9.5-10,16-12.8
			c2.4-1,5-1.8,7.6-2.4c2-0.4,4.1-0.7,6.2-0.8c0.5,0,1-0.1,1.6,0c2.5,0,4.9,0.2,7.2,0.7c1.9,0.3,3.9,0.9,5.7,1.6
			c14.6,5.2,25.1,18.7,25.7,35C105.1,51.2,105.1,51.9,105.1,52.5z"/>
	</g>
</g>
<g>
	<g>
		<path class="st0" d="M-125.4,1c-34.8,0-63,28.2-63,63s28.2,63,63,63s63-28.2,63-63S-90.7,1-125.4,1z M-91.1,78.7
			c-1.1,4.9-2.9,9.5-5.4,13.7c-6.3,10.9-16.6,19.2-28.9,23c-21-5.8-36.5-24.9-36.8-47.7c0-3.4,0.2-6.7,0.9-10c0.5-2.5,1.2-5.1,2-7.4
			c0.5-1.4,1-2.7,1.6-4c3,0.9,6.2,1.6,9.4,1.8c0.9,0.1,1.8,0.1,2.8,0.1c12.2-0.1,23-5.9,30.1-14.7c7.2,1,13.8,4.1,18.8,8.9
			c1.5,2.5,2.7,5.2,3.7,8c1.9,5.1,3,10.7,3.1,16.5C-89.8,70.8-90.2,74.8-91.1,78.7z M-84.4,52.5c0,0.1,0,0.2,0,0.3
			c-0.1,0.6-0.7,1.2-1.3,1.2c-0.5,0-1-0.3-1.3-0.7c-0.1-0.2-0.1-0.4-0.2-0.6c-1.4-4.6-3.8-8.9-6.9-12.4c-1-1.2-2.1-2.2-3.3-3.3
			c-5.2-4.6-11.8-7.6-19.1-8.3c-6.8,9-17.4,15.1-29.6,15.6c-0.9,0.1-1.9,0-2.8,0c-3.2-0.1-6.5-0.6-9.5-1.5c-0.4-0.1-0.7-0.2-1.1-0.3
			c-0.3-0.1-0.6-0.2-1-0.3c-3.5-1.2-6.8-2.9-9.8-5.1c-0.1-0.1-0.3-0.2-0.4-0.3c-0.3-0.3-0.4-0.6-0.4-0.9c-0.1-0.8,0.6-1.4,1.4-1.5
			c0.1,0,0.3,0,0.4,0.1c0.1,0,0.1,0.1,0.2,0.1c3.4,1.1,6.9,1.8,10.6,2.1c1.1-2.5,2.5-5,4.1-7.2c0,0,0,0,0-0.1c4-5.5,9.5-10,16-12.8
			c2.4-1,5-1.8,7.6-2.4c2-0.4,4.1-0.7,6.2-0.8c0.5,0,1-0.1,1.6,0c2.5,0,4.9,0.2,7.2,0.7c1.9,0.3,3.9,0.9,5.7,1.6
			c14.6,5.2,25.1,18.7,25.7,35C-84.4,51.2-84.4,51.9-84.4,52.5z"/>
	</g>
</g>
</svg>
